<?xml version="1.0" encoding="UTF-8"?>
<!DOCTYPE svg PUBLIC "-//W3C//DTD SVG 1.1//EN" "http://www.w3.org/Graphics/SVG/1.1/DTD/svg11.dtd">
<svg xmlns="http://www.w3.org/2000/svg" version="1.1" width="512px" height="512px" style="shape-rendering:geometricPrecision; text-rendering:geometricPrecision; image-rendering:optimizeQuality; fill-rule:evenodd; clip-rule:evenodd" xmlns:xlink="http://www.w3.org/1999/xlink">
<g><path style="opacity:0.977" fill="#010001" d="M 358.5,-0.5 C 362.167,-0.5 365.833,-0.5 369.5,-0.5C 372.074,0.880961 374.574,2.54763 377,4.5C 384.033,19.721 393.866,32.8876 406.5,44C 416.838,49.8336 426.838,56.1669 436.5,63C 442.033,68.1983 447.2,73.6983 452,79.5C 463.5,104.333 481.667,122.5 506.5,134C 508.452,136.426 510.119,138.926 511.5,141.5C 511.5,145.167 511.5,148.833 511.5,152.5C 508.381,157.783 504.048,161.95 498.5,165C 477.44,176.934 454.773,183.601 430.5,185C 417.991,185.449 405.658,185.616 393.5,185.5C 412.742,227.385 414.575,270.052 399,313.5C 374.379,368.441 332.212,400.274 272.5,409C 252.19,410.815 232.19,409.149 212.5,404C 202.892,401.023 193.559,397.69 184.5,394C 188.489,428.74 182.989,461.907 168,493.5C 164.431,501.036 159.264,507.036 152.5,511.5C 148.833,511.5 145.167,511.5 141.5,511.5C 138.926,510.119 136.426,508.452 134,506.5C 127.995,495.149 120.995,484.482 113,474.5C 109.885,472.353 107.052,469.853 104.5,467C 93.6564,461.081 83.3231,454.414 73.5,447C 68.6329,442.468 64.1329,437.634 60,432.5C 53.4973,421.491 46.4973,410.824 39,400.5C 28.322,391.494 16.822,383.66 4.5,377C 2.54763,374.574 0.880961,372.074 -0.5,369.5C -0.5,365.833 -0.5,362.167 -0.5,358.5C 3.96357,351.736 9.96357,346.569 17.5,343C 49.0911,328.011 82.2578,322.511 117,326.5C 110.764,311.781 106.097,296.448 103,280.5C 95.3057,215.518 117.806,164.018 170.5,126C 210.374,101.348 253.04,95.0142 298.5,107C 308.108,109.977 317.441,113.31 326.5,117C 322.511,82.2595 328.011,49.0929 343,17.5C 346.569,9.96357 351.736,3.96357 358.5,-0.5 Z"/></g>
<g><path style="opacity:1" fill="#ca96e5" d="M 474.5,133.5 C 456.111,143.517 436.445,149.517 415.5,151.5C 418.433,149.355 421.433,147.188 424.5,145C 428.533,141.832 429.367,137.999 427,133.5C 425.177,131.833 423.01,130.833 420.5,130.5C 405.581,140.789 389.248,148.122 371.5,152.5C 367.921,150.429 364.754,147.762 362,144.5C 365.683,127.126 372.683,111.126 383,96.5C 383.72,88.8914 380.22,85.7247 372.5,87C 361.642,100.862 353.809,116.362 349,133.5C 346.815,132.072 344.815,130.405 343,128.5C 337.576,96.3216 340.576,64.9882 352,34.5C 355.212,27.1457 359.378,20.479 364.5,14.5C 373.307,31.9636 385.307,46.7969 400.5,59C 415.662,65.827 428.496,75.6603 439,88.5C 447.513,106.232 459.346,121.232 474.5,133.5 Z"/></g>
<g><path style="opacity:1" fill="#fa70c2" d="M 277.5,392.5 C 277.5,385.833 277.5,379.167 277.5,372.5C 263.131,376.506 248.465,378.839 233.5,379.5C 233.5,383.833 233.5,388.167 233.5,392.5C 232.334,301.334 232.168,210.001 233,118.5C 248.117,115.916 263.284,115.916 278.5,118.5C 278.833,210.002 278.499,301.335 277.5,392.5 Z"/></g>
<g><path style="opacity:1" fill="#fd93d2" d="M 216.5,122.5 C 217.499,207.665 217.833,292.998 217.5,378.5C 202.311,376.599 187.644,372.933 173.5,367.5C 172.669,354.006 172.169,340.339 172,326.5C 170.362,324.266 168.195,322.933 165.5,322.5C 165.5,317.167 165.5,311.833 165.5,306.5C 164.209,306.737 163.209,306.404 162.5,305.5C 166.287,306.186 169.454,305.186 172,302.5C 172.333,249.5 172.667,196.5 173,143.5C 186.128,133.686 200.628,126.686 216.5,122.5 Z"/></g>
<g><path style="opacity:1" fill="#71415e" d="M 216.5,122.5 C 216.56,121.957 216.893,121.624 217.5,121.5C 218.833,210.833 218.833,300.167 217.5,389.5C 216.893,389.376 216.56,389.043 216.5,388.5C 217.479,385.375 217.813,382.042 217.5,378.5C 217.833,292.998 217.499,207.665 216.5,122.5 Z"/></g>
<g><path style="opacity:1" fill="#512e42" d="M 295.5,122.5 C 293.503,203.16 292.836,284.16 293.5,365.5C 292.868,373.573 293.535,381.24 295.5,388.5C 294.791,389.404 293.791,389.737 292.5,389.5C 292.5,300.167 292.5,210.833 292.5,121.5C 293.791,121.263 294.791,121.596 295.5,122.5 Z"/></g>
<g><path style="opacity:1" fill="#fe93d3" d="M 295.5,122.5 C 310.941,126.97 325.107,133.97 338,143.5C 338.333,160.167 338.667,176.833 339,193.5C 340.812,196.821 343.645,198.155 347.5,197.5C 344.833,202.833 344.833,208.167 347.5,213.5C 343.645,212.845 340.812,214.179 339,217.5C 338.5,256.499 338.333,295.499 338.5,334.5C 327.125,345.707 314.458,355.207 300.5,363C 298.257,364.136 295.924,364.97 293.5,365.5C 292.836,284.16 293.503,203.16 295.5,122.5 Z"/></g>
<g><path style="opacity:1" fill="#bb7ddd" d="M 474.5,133.5 C 482.307,137.236 489.64,141.736 496.5,147C 486.949,154.442 476.282,159.775 464.5,163C 438.901,170.019 412.901,172.019 386.5,169C 384.026,168.887 382.026,167.887 380.5,166C 392.555,162.039 404.221,157.206 415.5,151.5C 436.445,149.517 456.111,143.517 474.5,133.5 Z"/></g>
<g><path style="opacity:1" fill="#351829" d="M 156.5,157.5 C 156.56,156.957 156.893,156.624 157.5,156.5C 158.5,204.829 158.833,253.162 158.5,301.5C 157.833,253.5 157.167,205.5 156.5,157.5 Z"/></g>
<g><path style="opacity:1" fill="#fd72c4" d="M 156.5,157.5 C 157.167,205.5 157.833,253.5 158.5,301.5C 158.894,303.71 160.227,305.043 162.5,305.5C 163.209,306.404 164.209,306.737 165.5,306.5C 165.5,311.833 165.5,317.167 165.5,322.5C 161.91,322.544 159.41,324.211 158,327.5C 157.667,336.167 157.333,344.833 157,353.5C 126.821,321.973 113.488,284.306 117,240.5C 121.071,208.364 134.237,180.697 156.5,157.5 Z"/></g>
<g><path style="opacity:1" fill="#fe72c5" d="M 366.5,172.5 C 387.447,222.564 383.114,270.231 353.5,315.5C 353.667,282.832 353.5,250.165 353,217.5C 351.853,215.181 350.019,213.848 347.5,213.5C 344.833,208.167 344.833,202.833 347.5,197.5C 350.415,197.087 352.248,195.421 353,192.5C 353.333,180.833 353.667,169.167 354,157.5C 358.651,162.161 362.818,167.161 366.5,172.5 Z"/></g>
<g><path style="opacity:1" fill="#fb4eb5" d="M 366.5,172.5 C 391.013,205.234 399.513,241.901 392,282.5C 386.38,310.082 373.713,333.748 354,353.5C 353.5,340.838 353.333,328.171 353.5,315.5C 383.114,270.231 387.447,222.564 366.5,172.5 Z"/></g>
<g><path style="opacity:1" fill="#fd72c4" d="M 338.5,334.5 C 338.667,345.505 338.5,356.505 338,367.5C 325.107,377.03 310.941,384.03 295.5,388.5C 293.535,381.24 292.868,373.573 293.5,365.5C 295.924,364.97 298.257,364.136 300.5,363C 314.458,355.207 327.125,345.707 338.5,334.5 Z"/></g>
<g><path style="opacity:1" fill="#ca96e5" d="M 152.5,413.5 C 149.975,435.073 143.641,455.407 133.5,474.5C 128.068,467.233 121.735,460.733 114.5,455C 105.833,449.667 97.1667,444.333 88.5,439C 84.0332,435.535 79.8666,431.702 76,427.5C 69.0841,417.337 62.4174,407.003 56,396.5C 51.1667,390.333 45.6667,384.833 39.5,380C 31.1667,374.833 22.8333,369.667 14.5,364.5C 28.0291,353.922 43.3624,347.089 60.5,344C 83.1115,339.771 105.778,339.438 128.5,343C 130.405,344.815 132.072,346.815 133.5,349C 119.395,353.388 106.061,359.388 93.5,367C 87.312,371.64 86.9787,376.64 92.5,382C 94.1667,382.667 95.8333,382.667 97.5,382C 111.955,372.266 127.622,365.6 144.5,362C 147.762,364.754 150.429,367.921 152.5,371.5C 148.978,387.538 142.478,402.205 133,415.5C 131.673,423.17 134.839,426.67 142.5,426C 143.416,425.626 144.25,425.126 145,424.5C 147.363,420.655 149.863,416.989 152.5,413.5 Z"/></g>
<g><path style="opacity:1" fill="#f770c0" d="M 173.5,367.5 C 187.644,372.933 202.311,376.599 217.5,378.5C 217.813,382.042 217.479,385.375 216.5,388.5C 200.65,384.408 186.317,377.408 173.5,367.5 Z"/></g>
<g><path style="opacity:1" fill="#fc4eb6" d="M 277.5,392.5 C 262.692,395.103 248.025,395.103 233.5,392.5C 233.5,388.167 233.5,383.833 233.5,379.5C 248.465,378.839 263.131,376.506 277.5,372.5C 277.5,379.167 277.5,385.833 277.5,392.5 Z"/></g>
<g><path style="opacity:1" fill="#bb7ddd" d="M 133.5,474.5 C 143.641,455.407 149.975,435.073 152.5,413.5C 157.678,402.806 162.178,391.806 166,380.5C 166.667,381.167 167.333,381.833 168,382.5C 172.865,415.38 169.532,447.38 158,478.5C 154.898,484.595 151.398,490.429 147.5,496C 146.551,496.617 145.718,496.451 145,495.5C 141.142,488.446 137.309,481.446 133.5,474.5 Z"/></g>
</svg>
