<?xml version="1.0" encoding="UTF-8"?>
<!DOCTYPE svg PUBLIC "-//W3C//DTD SVG 1.1//EN" "http://www.w3.org/Graphics/SVG/1.1/DTD/svg11.dtd">
<svg xmlns="http://www.w3.org/2000/svg" version="1.1" width="512px" height="512px" style="shape-rendering:geometricPrecision; text-rendering:geometricPrecision; image-rendering:optimizeQuality; fill-rule:evenodd; clip-rule:evenodd" xmlns:xlink="http://www.w3.org/1999/xlink">
<g><path style="opacity:0.994" fill="#cc97e8" d="M 363.5,-0.5 C 366.167,-0.5 368.833,-0.5 371.5,-0.5C 374.447,2.01948 376.947,5.01948 379,8.5C 381.909,15.3243 385.576,21.6576 390,27.5C 395.167,33.3333 400.667,38.8333 406.5,44C 416.334,49.7495 426.001,55.7495 435.5,62C 448.699,74.1943 459.199,88.3609 467,104.5C 473.736,111.739 480.902,118.406 488.5,124.5C 468.544,137.986 446.544,145.819 422.5,148C 426.908,145.767 429.575,142.267 430.5,137.5C 429.23,131.412 425.563,129.245 419.5,131C 407.717,139.725 394.717,146.058 380.5,150C 375.177,150.499 369.844,150.666 364.5,150.5C 363.167,149.833 362.167,148.833 361.5,147.5C 365.204,128.223 372.704,110.556 384,94.5C 384.671,86.8408 381.171,83.6741 373.5,85C 360.777,99.9481 352.444,117.115 348.5,136.5C 344.518,133.848 340.851,130.848 337.5,127.5C 334.226,100.701 335.059,74.0347 340,47.5C 343.903,29.3648 351.736,13.3648 363.5,-0.5 Z"/></g>
<g><path style="opacity:1" fill="#bf80e2" d="M 361.5,147.5 C 358.455,144.453 355.122,141.787 351.5,139.5C 351.167,138.5 350.5,137.833 349.5,137.5C 349.5,136.833 349.167,136.5 348.5,136.5C 352.444,117.115 360.777,99.9481 373.5,85C 381.171,83.6741 384.671,86.8408 384,94.5C 372.704,110.556 365.204,128.223 361.5,147.5 Z"/></g>
<g><path style="opacity:1" fill="#ff73c6" d="M 286.5,107.5 C 286.167,195.836 286.5,284.169 287.5,372.5C 311.614,362.955 331.948,348.288 348.5,328.5C 348.171,343.676 348.504,358.676 349.5,373.5C 331.336,389.079 310.336,399.079 286.5,403.5C 286.5,393.5 286.5,383.5 286.5,373.5C 266.404,380.182 245.737,383.182 224.5,382.5C 224.5,290.833 224.5,199.167 224.5,107.5C 245.167,103.5 265.833,103.5 286.5,107.5 Z"/></g>
<g><path style="opacity:0.999" fill="#ff93d3" d="M 224.5,107.5 C 224.5,199.167 224.5,290.833 224.5,382.5C 203.09,381.482 182.757,376.148 163.5,366.5C 162.5,289.836 162.167,213.17 162.5,136.5C 180.503,121.503 201.169,111.836 224.5,107.5 Z"/></g>
<g><path style="opacity:0.999" fill="#fe93d3" d="M 286.5,107.5 C 304.749,111.13 321.749,117.797 337.5,127.5C 340.851,130.848 344.518,133.848 348.5,136.5C 349.167,136.5 349.5,136.833 349.5,137.5C 348.501,200.664 348.168,263.998 348.5,327.5C 348.5,327.833 348.5,328.167 348.5,328.5C 331.948,348.288 311.614,362.955 287.5,372.5C 286.5,284.169 286.167,195.836 286.5,107.5 Z"/></g>
<g><path style="opacity:1" fill="#bf80e2" d="M 488.5,124.5 C 497.094,128.283 504.761,133.283 511.5,139.5C 511.5,142.167 511.5,144.833 511.5,147.5C 497.635,159.264 481.635,167.097 463.5,171C 436.962,175.941 410.295,176.774 383.5,173.5C 377.416,165.689 371.083,158.022 364.5,150.5C 369.844,150.666 375.177,150.499 380.5,150C 394.717,146.058 407.717,139.725 419.5,131C 425.563,129.245 429.23,131.412 430.5,137.5C 429.575,142.267 426.908,145.767 422.5,148C 446.544,145.819 468.544,137.986 488.5,124.5 Z"/></g>
<g><path style="opacity:1" fill="#fe73c6" d="M 162.5,136.5 C 162.167,213.17 162.5,289.836 163.5,366.5C 182.757,376.148 203.09,381.482 224.5,382.5C 224.5,389.5 224.5,396.5 224.5,403.5C 206.241,399.864 189.241,393.197 173.5,383.5C 165.689,377.416 158.022,371.083 150.5,364.5C 149.833,363.167 148.833,362.167 147.5,361.5C 143.458,357.46 139.791,353.127 136.5,348.5C 133.848,344.518 130.848,340.851 127.5,337.5C 101.58,293.211 97.4134,246.878 115,198.5C 125.046,173.301 140.879,152.635 162.5,136.5 Z"/></g>
<g><path style="opacity:1" fill="#fe73c6" d="M 349.5,137.5 C 350.5,137.833 351.167,138.5 351.5,139.5C 383.591,183.486 391.091,231.486 374,283.5C 368.278,299.967 359.778,314.633 348.5,327.5C 348.168,263.998 348.501,200.664 349.5,137.5 Z"/></g>
<g><path style="opacity:1" fill="#fe50b8" d="M 351.5,139.5 C 355.122,141.787 358.455,144.453 361.5,147.5C 362.167,148.833 363.167,149.833 364.5,150.5C 371.083,158.022 377.416,165.689 383.5,173.5C 409.42,217.777 413.587,264.11 396,312.5C 387,333.669 374.167,352.169 357.5,368C 354.935,370.08 352.268,371.913 349.5,373.5C 348.504,358.676 348.171,343.676 348.5,328.5C 348.5,328.167 348.5,327.833 348.5,327.5C 359.778,314.633 368.278,299.967 374,283.5C 391.091,231.486 383.591,183.486 351.5,139.5 Z"/></g>
<g><path style="opacity:0.993" fill="#cc98e8" d="M 127.5,337.5 C 130.848,340.851 133.848,344.518 136.5,348.5C 118.023,352.656 101.523,360.656 87,372.5C 85.6741,380.171 88.8408,383.671 96.5,383C 112.152,372.616 129.152,365.45 147.5,361.5C 148.833,362.167 149.833,363.167 150.5,364.5C 151.299,373.461 150.132,382.128 147,390.5C 142.458,401.085 137.292,411.251 131.5,421C 132.75,427.901 136.75,430.234 143.5,428C 145.359,426.442 146.859,424.609 148,422.5C 146.188,442.275 140.521,460.942 131,478.5C 128.958,481.94 126.458,484.94 123.5,487.5C 117.712,480.21 111.378,473.376 104.5,467C 88.3609,459.199 74.1943,448.699 62,435.5C 55.7495,426.001 49.7495,416.334 44,406.5C 38.8333,400.667 33.3333,395.167 27.5,390C 21.6576,385.576 15.3243,381.909 8.5,379C 5.01948,376.947 2.01948,374.447 -0.5,371.5C -0.5,368.833 -0.5,366.167 -0.5,363.5C 14.743,350.551 32.4097,342.385 52.5,339C 77.4294,334.972 102.429,334.472 127.5,337.5 Z"/></g>
<g><path style="opacity:1" fill="#bf80e2" d="M 136.5,348.5 C 139.791,353.127 143.458,357.46 147.5,361.5C 129.152,365.45 112.152,372.616 96.5,383C 88.8408,383.671 85.6741,380.171 87,372.5C 101.523,360.656 118.023,352.656 136.5,348.5 Z"/></g>
<g><path style="opacity:1" fill="#bf80e2" d="M 150.5,364.5 C 158.022,371.083 165.689,377.416 173.5,383.5C 176.774,410.295 175.941,436.962 171,463.5C 167.097,481.635 159.264,497.635 147.5,511.5C 144.833,511.5 142.167,511.5 139.5,511.5C 137.193,510.023 135.36,508.023 134,505.5C 130.741,499.308 127.241,493.308 123.5,487.5C 126.458,484.94 128.958,481.94 131,478.5C 140.521,460.942 146.188,442.275 148,422.5C 146.859,424.609 145.359,426.442 143.5,428C 136.75,430.234 132.75,427.901 131.5,421C 137.292,411.251 142.458,401.085 147,390.5C 150.132,382.128 151.299,373.461 150.5,364.5 Z"/></g>
<g><path style="opacity:1" fill="#ff50b8" d="M 286.5,403.5 C 265.833,407.5 245.167,407.5 224.5,403.5C 224.5,396.5 224.5,389.5 224.5,382.5C 245.737,383.182 266.404,380.182 286.5,373.5C 286.5,383.5 286.5,393.5 286.5,403.5 Z"/></g>
</svg>
