<?xml version="1.0" encoding="UTF-8"?>
<svg version="1.1" xmlns="http://www.w3.org/2000/svg" width="512" height="512">
<path d="M0 0 C4.33683239 3.09773742 6.63023287 7.51253949 9.265625 12.04296875 C14.13105948 20.33831538 18.88474975 28.4320767 26 35 C26 35.66 26 36.32 26 37 C26.59039062 37.26554687 27.18078125 37.53109375 27.7890625 37.8046875 C30.05716052 39.03090304 31.53352098 40.33351588 33.375 42.125 C36.87266671 45.26576194 40.58670615 47.61583641 44.6875 49.875 C64.31541418 60.78348464 77.86096331 73.6574868 88.7890625 93.19921875 C92.35963028 99.5659161 96.18587792 104.78609776 101.27734375 110.0390625 C103 112 103 112 103 114 C103.59039062 114.26554687 104.18078125 114.53109375 104.7890625 114.8046875 C107.05716052 116.03090304 108.53352098 117.33351588 110.375 119.125 C114.44791178 122.78758111 118.93142592 125.37525132 123.69555664 128.00488281 C137.95729687 135.91459374 137.95729687 135.91459374 140 140 C140.69435371 147.05926272 140.69435371 147.05926272 138.0625 150.625 C136.5465625 151.800625 136.5465625 151.800625 135 153 C134.42636719 153.44730469 133.85273438 153.89460937 133.26171875 154.35546875 C107.76429306 172.82253629 75.21341385 176.36740991 44.6875 176.375 C43.86078796 176.37690338 43.03407593 176.37880676 42.18231201 176.38076782 C31.93636314 176.37809237 22.11223381 175.78372702 12 174 C12.64066406 175.07894531 13.28132813 176.15789062 13.94140625 177.26953125 C33.23901053 210.42758274 41.67709324 252.26542259 32 290 C31.70198486 291.18045898 31.70198486 291.18045898 31.39794922 292.38476562 C25.306198 315.8026437 15.02101518 336.77114174 -1 355 C-1.72960937 355.85078125 -2.45921875 356.7015625 -3.2109375 357.578125 C-27.10385563 384.90826995 -63.42227673 404.46916049 -100 407 C-116.66819644 407.61313363 -133.74279767 408.16918576 -150 404 C-150.78697266 403.80132324 -151.57394531 403.60264648 -152.38476562 403.39794922 C-168.52417589 399.19956405 -183.98072136 393.11330738 -198 384 C-197.85997559 384.7938208 -197.71995117 385.5876416 -197.57568359 386.40551758 C-195.94227578 396.54030038 -195.60140763 406.44042316 -195.625 416.6875 C-195.62521149 417.53805969 -195.62542297 418.38861938 -195.62564087 419.26495361 C-195.7030853 450.63838848 -200.26246357 486.49965918 -222 511 C-225.23308985 512.61654493 -228.50403441 512.56800988 -232 512 C-236.33683239 508.90226258 -238.63023287 504.48746051 -241.265625 499.95703125 C-246.13105948 491.66168462 -250.88474975 483.5679233 -258 477 C-258 476.34 -258 475.68 -258 475 C-258.59039062 474.73445313 -259.18078125 474.46890625 -259.7890625 474.1953125 C-262.05716052 472.96909696 -263.53352098 471.66648412 -265.375 469.875 C-268.87266671 466.73423806 -272.58670615 464.38416359 -276.6875 462.125 C-296.31541418 451.21651536 -309.86096331 438.3425132 -320.7890625 418.80078125 C-324.35963028 412.4340839 -328.18587792 407.21390224 -333.27734375 401.9609375 C-335 400 -335 400 -335 398 C-335.59039062 397.73445313 -336.18078125 397.46890625 -336.7890625 397.1953125 C-339.05716052 395.96909696 -340.53352098 394.66648412 -342.375 392.875 C-346.44791178 389.21241889 -350.93142592 386.62474868 -355.69555664 383.99511719 C-369.95729687 376.08540626 -369.95729687 376.08540626 -372 372 C-372.69435371 364.94073728 -372.69435371 364.94073728 -370.0625 361.375 C-368.5465625 360.199375 -368.5465625 360.199375 -367 359 C-366.42636719 358.55269531 -365.85273438 358.10539062 -365.26171875 357.64453125 C-341.02593945 340.09123867 -309.4557132 335.81195319 -280.35205078 335.81469727 C-277.7696875 335.81251662 -275.18775651 335.7943238 -272.60546875 335.77539062 C-262.86954218 335.74351664 -253.60548211 336.25219836 -244 338 C-244.64066406 336.92105469 -245.28132813 335.84210938 -245.94140625 334.73046875 C-260.05116512 310.4864173 -267.226218 284.67688012 -267.25 256.625 C-267.25067474 255.91068817 -267.25134949 255.19637634 -267.25204468 254.4604187 C-267.23545283 243.39644778 -266.71907757 232.76489441 -264 222 C-263.82839355 221.30487305 -263.65678711 220.60974609 -263.47998047 219.89355469 C-253.87210931 182.06309865 -230.74494339 148.7390314 -197.625 127.8125 C-195.43092613 126.51720338 -193.2219126 125.2469394 -191 124 C-190.11586426 123.5035498 -190.11586426 123.5035498 -189.21386719 122.99707031 C-166.68580266 110.54766395 -142.2473285 104.77172226 -116.625 104.75 C-115.91068817 104.74932526 -115.19637634 104.74865051 -114.4604187 104.74795532 C-103.39644778 104.76454717 -92.76489441 105.28092243 -82 108 C-81.30487305 108.17160645 -80.60974609 108.34321289 -79.89355469 108.52001953 C-63.46910494 112.69136753 -48.48401572 119.2701571 -34 128 C-34.14074951 127.20980469 -34.28149902 126.41960937 -34.42651367 125.60546875 C-36.08700312 115.36005125 -36.35805772 105.35820365 -36.3125 95 C-36.30976578 93.71107849 -36.30976578 93.71107849 -36.30697632 92.39611816 C-36.25946741 79.08186341 -35.77087263 66.06770566 -33 53 C-32.82839355 52.18241211 -32.65678711 51.36482422 -32.47998047 50.52246094 C-28.64337105 32.9748586 -21.84662614 14.77682999 -10 1 C-6.76691015 -0.61654493 -3.49596559 -0.56800988 0 0 Z " fill="#FE73C6" transform="translate(372,0)"/>
<path d="M0 0 C4.33683239 3.09773742 6.63023287 7.51253949 9.265625 12.04296875 C14.13105948 20.33831538 18.88474975 28.4320767 26 35 C26 35.66 26 36.32 26 37 C26.59039062 37.26554687 27.18078125 37.53109375 27.7890625 37.8046875 C30.05716052 39.03090304 31.53352098 40.33351588 33.375 42.125 C36.87266671 45.26576194 40.58670615 47.61583641 44.6875 49.875 C64.31541418 60.78348464 77.86096331 73.6574868 88.7890625 93.19921875 C92.35963028 99.5659161 96.18587792 104.78609776 101.27734375 110.0390625 C103 112 103 112 103 114 C103.59039062 114.26554687 104.18078125 114.53109375 104.7890625 114.8046875 C107.05716052 116.03090304 108.53352098 117.33351588 110.375 119.125 C114.44791178 122.78758111 118.93142592 125.37525132 123.69555664 128.00488281 C137.95729687 135.91459374 137.95729687 135.91459374 140 140 C140.69435371 147.05926272 140.69435371 147.05926272 138.0625 150.625 C136.5465625 151.800625 136.5465625 151.800625 135 153 C134.42636719 153.44730469 133.85273438 153.89460937 133.26171875 154.35546875 C107.78448951 172.80790857 75.25406452 176.367393 44.75 176.375 C43.92755798 176.37690338 43.10511597 176.37880676 42.25775146 176.38076782 C14.70176372 176.37353564 14.70176372 176.37353564 8.94921875 172.68505859 C7.39864201 171.04436716 6.27787457 169.4379625 5.125 167.5 C4.24909659 166.22579517 3.37015823 164.95367158 2.48828125 163.68359375 C2.07271973 163.05694824 1.6571582 162.43030273 1.22900391 161.78466797 C-0.55214371 159.19821801 -2.58288365 156.88940973 -4.6875 154.5625 C-5.33074219 153.84191406 -5.97398437 153.12132812 -6.63671875 152.37890625 C-9.92912761 149.0647294 -13.45535502 146.04004606 -17 143 C-16.68361572 143.50112305 -16.36723145 144.00224609 -16.04125977 144.51855469 C-5.79307104 160.86672336 3.77846842 177.52470707 7.52392578 196.65625 C7.89888814 198.50221856 8.31810133 200.33920042 8.75341797 202.171875 C10.86032489 211.52259984 11.46819167 220.43232808 11.39111328 230.00585938 C11.37505797 232.36647711 11.39104831 234.72537171 11.41015625 237.0859375 C11.43274555 251.81492981 9.27206057 265.7668097 4.5 279.75 C4.15888184 280.75659668 3.81776367 281.76319336 3.46630859 282.80029297 C-4.08838978 304.20247491 -15.95993179 322.41066578 -31.67041016 338.61914062 C-32.80328546 339.79570007 -33.91037777 340.99699623 -35.01171875 342.203125 C-47.51673066 355.54903793 -65.32148571 365.90961711 -82 373 C-82.99 373 -83.98 373 -85 373 C-85 285.55 -85 198.1 -85 108 C-72.07403562 110.35017534 -72.07403562 110.35017534 -65.8125 112.625 C-65.09980957 112.88007324 -64.38711914 113.13514648 -63.65283203 113.39794922 C-53.27140459 117.23759268 -43.56316926 122.4686039 -34 128 C-34.14074951 127.20980469 -34.28149902 126.41960937 -34.42651367 125.60546875 C-36.08700312 115.36005125 -36.35805772 105.35820365 -36.3125 95 C-36.31067719 94.14071899 -36.30885437 93.28143799 -36.30697632 92.39611816 C-36.25946741 79.08186341 -35.77087263 66.06770566 -33 53 C-32.82839355 52.18241211 -32.65678711 51.36482422 -32.47998047 50.52246094 C-28.64337105 32.9748586 -21.84662614 14.77682999 -10 1 C-6.76691015 -0.61654493 -3.49596559 -0.56800988 0 0 Z " fill="#FE93D3" transform="translate(372,0)"/>
<path d="M0 0 C2.57137843 -0.0021777 5.14232062 -0.02036201 7.71362305 -0.03930664 C15.44315678 -0.06846504 23.1429861 0.04011346 30.83276367 0.88061523 C31.9881665 1.00581543 33.14356934 1.13101562 34.33398438 1.26000977 C40.31813122 3.0618622 43.15299981 8.1570292 46.40698242 13.18530273 C55.69361458 25.8855143 66.9167682 36.23150263 80.01049805 44.91113281 C83.09833013 47.84136466 83.25302962 49.56771083 83.69604492 53.76342773 C83.80125961 54.74270233 83.80125961 54.74270233 83.90859985 55.74176025 C84.72468904 64.1181439 84.80144368 72.5261869 84.78198242 80.93530273 C84.78177094 81.78336487 84.78155945 82.631427 84.78134155 83.50518799 C84.70376251 114.85962049 80.12934896 150.70205988 58.40698242 175.18530273 C55.17389257 176.80184766 51.90294801 176.75331262 48.40698242 176.18530273 C44.07015003 173.08756531 41.77674955 168.67276324 39.14135742 164.14233398 C34.27592294 155.84698735 29.52223267 147.75322604 22.40698242 141.18530273 C22.40698242 140.52530273 22.40698242 139.86530273 22.40698242 139.18530273 C21.8165918 138.91975586 21.22620117 138.65420898 20.61791992 138.38061523 C18.3498219 137.15439969 16.87346145 135.85178685 15.03198242 134.06030273 C11.53431571 130.91954079 7.82027628 128.56946633 3.71948242 126.31030273 C-15.90843176 115.4018181 -29.45398089 102.52781594 -40.38208008 82.98608398 C-43.95264786 76.61938664 -47.7788955 71.39920498 -52.87036133 66.14624023 C-54.59301758 64.18530273 -54.59301758 64.18530273 -54.59301758 62.18530273 C-55.47860352 61.78698242 -55.47860352 61.78698242 -56.38208008 61.38061523 C-58.6501781 60.15439969 -60.12653855 58.85178685 -61.96801758 57.06030273 C-66.04092935 53.39772162 -70.5244435 50.81005141 -75.28857422 48.18041992 C-89.55031445 40.27070899 -89.55031445 40.27070899 -91.59301758 36.18530273 C-92.28737129 29.12604002 -92.28737129 29.12604002 -89.65551758 25.56030273 C-88.64489258 24.77655273 -87.63426758 23.99280273 -86.59301758 23.18530273 C-86.01938477 22.73799805 -85.44575195 22.29069336 -84.85473633 21.82983398 C-60.63740957 4.28990606 -29.08387679 -0.00274869 0 0 Z " fill="#CB98E8" transform="translate(91.593017578125,335.814697265625)"/>
<path d="M0 0 C4.33683239 3.09773742 6.63023287 7.51253949 9.265625 12.04296875 C14.13105948 20.33831538 18.88474975 28.4320767 26 35 C26 35.66 26 36.32 26 37 C26.88558594 37.39832031 26.88558594 37.39832031 27.7890625 37.8046875 C30.05716052 39.03090304 31.53352098 40.33351588 33.375 42.125 C36.87266671 45.26576194 40.58670615 47.61583641 44.6875 49.875 C64.31541418 60.78348464 77.86096331 73.6574868 88.7890625 93.19921875 C92.35963028 99.5659161 96.18587792 104.78609776 101.27734375 110.0390625 C103 112 103 112 103 114 C103.59039062 114.26554687 104.18078125 114.53109375 104.7890625 114.8046875 C107.05716052 116.03090304 108.53352098 117.33351588 110.375 119.125 C114.44791178 122.78758111 118.93142592 125.37525132 123.69555664 128.00488281 C137.95729687 135.91459374 137.95729687 135.91459374 140 140 C140.69435371 147.05926272 140.69435371 147.05926272 138.0625 150.625 C136.5465625 151.800625 136.5465625 151.800625 135 153 C134.42636719 153.44730469 133.85273438 153.89460937 133.26171875 154.35546875 C107.78448951 172.80790857 75.25406452 176.367393 44.75 176.375 C43.92755798 176.37690338 43.10511597 176.37880676 42.25775146 176.38076782 C14.70176372 176.37353564 14.70176372 176.37353564 8.94921875 172.68505859 C7.39860047 171.04432321 6.27779703 169.43808737 5.125 167.5 C4.24917666 166.22444023 3.37023787 164.95101428 2.48828125 163.6796875 C1.86493896 162.73947754 1.86493896 162.73947754 1.22900391 161.78027344 C-1.73054186 157.49322382 -5.4400051 153.78666125 -9 150 C-9.87785156 149.02546875 -9.87785156 149.02546875 -10.7734375 148.03125 C-15.78326939 142.69326318 -21.52484147 138.51929912 -27.54125977 134.38720703 C-31.81053872 131.34391206 -34.03292214 129.37695293 -35 124 C-36.54288105 114.54064142 -36.24334161 104.80694036 -36.25 95.25 C-36.25067474 94.38072876 -36.25134949 93.51145752 -36.25204468 92.61584473 C-36.23553433 79.21685204 -35.78897212 66.15306462 -33 53 C-32.82839355 52.18241211 -32.65678711 51.36482422 -32.47998047 50.52246094 C-28.64337105 32.9748586 -21.84662614 14.77682999 -10 1 C-6.76691015 -0.61654493 -3.49596559 -0.56800988 0 0 Z " fill="#CB97E8" transform="translate(372,0)"/>
<path d="M0 0 C0 90.75 0 181.5 0 275 C-19.98987294 275 -40.33788108 269.93774175 -58.23242188 260.90234375 C-58.94136597 260.54519287 -59.65031006 260.18804199 -60.3807373 259.82006836 C-60.91509399 259.5494458 -61.44945068 259.27882324 -62 259 C-62.25103476 229.70839926 -62.44565498 200.41687493 -62.56171862 171.1244182 C-62.5754761 167.66481218 -62.58971368 164.2052083 -62.60424805 160.74560547 C-62.60713346 160.05687194 -62.61001888 159.36813841 -62.61299173 158.65853417 C-62.66083369 147.51208187 -62.74755007 136.36625475 -62.84868076 125.22017312 C-62.95161378 113.77987874 -63.01183659 102.34009129 -63.03497344 90.8993206 C-63.04931758 84.47428958 -63.08303554 78.05067555 -63.16303062 71.62609863 C-63.23772665 65.57806999 -63.26072223 59.532041 -63.24418449 53.48359489 C-63.24720949 51.26474066 -63.26907683 49.04581925 -63.31126022 46.82736397 C-63.61439945 30.06194237 -63.61439945 30.06194237 -59.61988258 24.96006775 C-56.81446665 22.87791401 -54.18399214 21.41510907 -51 20 C-49.54070677 19.11085619 -48.09006563 18.20701369 -46.65625 17.27734375 C-45.27735527 16.48592261 -43.89178137 15.70603283 -42.5 14.9375 C-41.36776001 14.31089478 -41.36776001 14.31089478 -40.21264648 13.67163086 C-28.84355995 7.57123099 -13.09969566 0 0 0 Z " fill="#FF93D3" transform="translate(225,108)"/>
<path d="M0 0 C18.67654078 7.7855369 33.45618436 35.53530699 40.85546875 53.41015625 C52.3263805 82.32653907 56.82195432 116.49929763 49 147 C48.80132324 147.78697266 48.60264648 148.57394531 48.39794922 149.38476562 C42.306198 172.8026437 32.02101518 193.77114174 16 212 C15.27039063 212.85078125 14.54078125 213.7015625 13.7890625 214.578125 C8.65648206 220.44907666 3.26475282 226.31839771 -3 231 C-3.99 231 -4.98 231 -6 231 C-6.2301879 224.66933982 -6.38661623 218.33977559 -6.49438477 212.00585938 C-6.53935403 209.85636072 -6.60055444 207.7071328 -6.67895508 205.55859375 C-7.44099155 184.12196004 -7.44099155 184.12196004 0.75708008 175.26123047 C1.49724365 174.51502441 2.23740723 173.76881836 3 173 C6.0757217 168.6058004 8.51610483 163.74967971 11 159 C11.30679687 158.41379883 11.61359375 157.82759766 11.9296875 157.22363281 C15.68739194 149.91297065 18.70785641 142.44101164 21.25 134.625 C21.48412598 133.91964111 21.71825195 133.21428223 21.95947266 132.48754883 C26.28442766 118.52833026 27.58293385 104.4687632 27.5 89.9375 C27.49835342 88.73817337 27.49835342 88.73817337 27.49667358 87.51461792 C27.44200643 73.55748649 25.96352881 60.43910192 22 47 C21.80245117 46.31550781 21.60490234 45.63101563 21.40136719 44.92578125 C20.1800382 40.83359087 18.68025116 36.92363826 17 33 C16.71785645 32.33983887 16.43571289 31.67967773 16.14501953 30.99951172 C12.37267424 22.29456035 8.13350445 14.14059237 2.79394531 6.2890625 C0 2.17582262 0 2.17582262 0 0 Z " fill="#FE50B8" transform="translate(355,143)"/>
<path d="M0 0 C6.298573 3.1492865 6.298573 3.1492865 7.83203125 7.1953125 C8.96152494 9.90760839 10.34810648 12.27889547 11.91918945 14.75561523 C20.47953588 28.28436259 27.43492499 42.87784282 30.52392578 58.65625 C30.89888814 60.50221856 31.31810133 62.33920042 31.75341797 64.171875 C33.86032489 73.52259984 34.46819167 82.43232808 34.39111328 92.00585938 C34.37505797 94.36647711 34.39104831 96.72537171 34.41015625 99.0859375 C34.43274555 113.81492981 32.27206057 127.7668097 27.5 141.75 C27.15888184 142.75659668 26.81776367 143.76319336 26.46630859 144.80029297 C12.76418345 183.61790828 12.76418345 183.61790828 0 190 C0 127.3 0 64.6 0 0 Z " fill="#FE72C5" transform="translate(349,138)"/>
<path d="M0 0 C4.07538502 1.18632783 7.76784648 3.37812347 11.5 5.375 C12.6034375 5.96023437 13.706875 6.54546875 14.84375 7.1484375 C22.24518389 11.49036778 22.24518389 11.49036778 24 15 C24.69435371 22.05926272 24.69435371 22.05926272 22.0625 25.625 C20.5465625 26.800625 20.5465625 26.800625 19 28 C18.42636719 28.44730469 17.85273438 28.89460938 17.26171875 29.35546875 C-8.21551049 47.80790857 -40.74593548 51.367393 -71.25 51.375 C-72.07244202 51.37690338 -72.89488403 51.37880676 -73.74224854 51.38076782 C-101.33002267 51.3735273 -101.33002267 51.3735273 -107.08300781 47.65283203 C-108.66412374 45.98209617 -109.81876933 44.34576986 -111 42.375 C-111.86932024 41.10685534 -112.74041045 39.83992216 -113.61328125 38.57421875 C-114.01498535 37.9611084 -114.41668945 37.34799805 -114.83056641 36.71630859 C-116.4317861 34.36629305 -118.27273252 32.28571825 -120.1875 30.1875 C-123 27.09836066 -123 27.09836066 -123 26 C-121.56333984 25.99613281 -121.56333984 25.99613281 -120.09765625 25.9921875 C-102.51201863 25.61469826 -84.88871949 18.89492884 -71 8 C-67.31624398 5.54416265 -65.34326899 5.26246376 -61 6 C-58.5625 7.625 -58.5625 7.625 -57 10 C-56.33974522 13.87899685 -56.63692991 15.44913504 -58.8125 18.75 C-61 21 -61 21 -64 23 C-41.34547432 21.885843 -18.6859679 12.45731193 0 0 Z " fill="#BF80E2" transform="translate(488,125)"/>
<path d="M0 0 C6.11664292 4.52606528 12.07557117 9.22566421 18 14 C18.84780029 14.56412598 19.69560059 15.12825195 20.5690918 15.70947266 C23.68992187 18.65008004 23.84298255 20.35338337 24.2890625 24.578125 C24.39427719 25.5573996 24.39427719 25.5573996 24.50161743 26.55645752 C25.31770661 34.93284117 25.39446126 43.34088416 25.375 51.75 C25.37478851 52.59806213 25.37457703 53.44612427 25.37435913 54.31988525 C25.29678009 85.67431775 20.72236654 121.51675714 -1 146 C-4.23308985 147.61654493 -7.50403441 147.56800988 -11 147 C-18.49800136 141.64428475 -22.6600587 130.95015796 -27 123 C-26.34 123 -25.68 123 -25 123 C-24.72542969 122.26394531 -24.45085937 121.52789062 -24.16796875 120.76953125 C-23.07592274 118.18003083 -21.83719493 116.03928972 -20.3125 113.6875 C-11.20338049 98.64634413 -2.08032698 76.93362385 -3 59 C-3.515625 59.825 -4.03125 60.65 -4.5625 61.5 C-7 64 -7 64 -10.4375 64.625 C-14.8855437 63.84464146 -16.34976997 62.61395004 -19 59 C-19.69126066 54.39418462 -18.03515109 52.01372431 -15.5 48.25 C-12.1096773 43.03429569 -9.25584364 37.69897227 -6.625 32.0625 C-6.12516602 30.99854004 -6.12516602 30.99854004 -5.61523438 29.91308594 C-2.30173759 22.71796715 -0.67799428 16.54072557 -0.375 8.625 C-0.33632812 7.79355469 -0.29765625 6.96210938 -0.2578125 6.10546875 C-0.16425754 4.07064844 -0.08107287 2.03535584 0 0 Z " fill="#BF80E2" transform="translate(151,365)"/>
<path d="M0 0 C0 9.9 0 19.8 0 30 C-9.70129998 32.77179999 -18.48868448 33.18646085 -28.50634766 33.18530273 C-30.59949581 33.18747355 -32.69210197 33.20563537 -34.78515625 33.22460938 C-43.65495598 33.26134572 -52.27508119 32.78438024 -61 31 C-62 30 -62 30 -62.11352539 27.95874023 C-62.10828857 27.08419189 -62.10305176 26.20964355 -62.09765625 25.30859375 C-62.09443359 24.36435547 -62.09121094 23.42011719 -62.08789062 22.44726562 C-62.07951172 21.45404297 -62.07113281 20.46082031 -62.0625 19.4375 C-62.05798828 18.44041016 -62.05347656 17.44332031 -62.04882812 16.41601562 C-62.03700007 13.94395151 -62.02051849 11.47200482 -62 9 C-61.37246826 8.98541748 -60.74493652 8.97083496 -60.09838867 8.95581055 C-41.40109908 8.47386019 -23.88553732 7.07947393 -6.125 0.98828125 C-3 0 -3 0 0 0 Z " fill="#FF50B8" transform="translate(287,374)"/>
<path d="M0 0 C2.9375 2.0625 2.9375 2.0625 5 5 C4.76688906 10.33635044 3.33126719 13.61696293 0.375 18 C-8.30989059 31.44220673 -14.23148524 46.45433827 -18 62 C-21.25612243 60.49948275 -24.04682372 58.7047125 -26.875 56.5 C-28.10863281 55.58734375 -28.10863281 55.58734375 -29.3671875 54.65625 C-31.2823182 51.54072638 -31.11513482 50.81601585 -30.484375 47.328125 C-29.17459851 42.14625617 -27.3979106 37.19196081 -25.375 32.25 C-24.85147949 30.95618408 -24.85147949 30.95618408 -24.31738281 29.63623047 C-21.15841328 22.02444309 -17.39907239 14.96827853 -13 8 C-11.98679687 6.38738281 -11.98679687 6.38738281 -10.953125 4.7421875 C-7.80344928 0.32004279 -5.30878204 -0.74322949 0 0 Z " fill="#BF80E2" transform="translate(380,85)"/>
<path d="M0 0 C1.81640625 1.828125 1.81640625 1.828125 3.5625 4.25 C4.14128906 5.03890625 4.72007812 5.8278125 5.31640625 6.640625 C6.14978516 7.80851562 6.14978516 7.80851562 7 9 C7.99709039 10.33551059 8.99609853 11.6696017 10 13 C8.99324219 13.268125 7.98648438 13.53625 6.94921875 13.8125 C-8.21165157 17.98146554 -23.03103542 23.24857328 -36.01806641 32.29394531 C-39.2373232 34.42643474 -40.88666032 35.00442642 -44.80078125 34.8515625 C-48 34 -48 34 -49.9375 32.3125 C-51.43335363 29.05681857 -51.76708834 27.55650047 -51 24 C-41.98859218 11.74919721 -14.65463688 0 0 0 Z " fill="#BF80E2" transform="translate(138,349)"/>
<path d="M0 0 C0.66 0.33 1.32 0.66 2 1 C-5.59 8.59 -13.18 16.18 -21 24 C-21 19.6782199 -18.39351052 17.78251059 -15.5625 14.8125 C-15.02206055 14.23604736 -14.48162109 13.65959473 -13.92480469 13.06567383 C-9.5267051 8.42820865 -4.9053275 4.10016011 0 0 Z " fill="#FF7DCC" transform="translate(160,138)"/>
</svg>
